<svg width="480" height="480" xmlns="http://www.w3.org/2000/svg">

 <g>
  <title>background</title>
  <rect fill="none" id="canvas_background" height="402" width="582" y="-1" x="-1"/>
 </g>
 <g>
  <title>Layer 1</title>
  <g id="directions">
   <path fill="#ffffff" id="svg_1" d="m416.925995,229.886002l-165.718002,-165.710999c-5.561996,-5.566002 -14.652008,-5.566002 -20.219009,0l-165.714981,165.710999c-5.566002,5.565002 -5.566002,14.656006 0,20.222l165.714996,165.720978c5.565994,5.565002 14.656006,5.565002 20.218994,0l165.719009,-165.720978c5.562012,-5.565994 5.562012,-14.656998 -0.001007,-20.222zm-97.717987,-2.891006l-50.859009,39.628998c-6.198975,4.841003 -11.276978,2.355011 -11.276978,-5.501007l0,-21.594986l-24.533005,0c-3.939011,0 -7.156006,3.218994 -7.156006,7.158005l0,57.136993c0,3.921997 -3.218994,7.140991 -7.141006,7.140991l-28.608994,0c-3.938995,0 -7.158005,-3.218994 -7.158005,-7.140991l0,-100.044998c0,-3.938004 3.219009,-7.156998 7.158005,-7.156998l67.439011,0l0,-21.318008c0,-7.868988 5.078003,-10.350998 11.276978,-5.51799l50.859009,39.632996c6.221985,4.828003 6.221985,12.749008 0,17.576996z"/>
  </g>
 </g>
</svg>